<?xml version="1.0" encoding="UTF-8" standalone="no"?>
<!-- Created with Inkscape (http://www.inkscape.org/) -->

<svg
   version="1.1"
   id="svg132"
   width="533"
   height="533"
   viewBox="0 0 533 533"
   xmlns="http://www.w3.org/2000/svg"
   xmlns:svg="http://www.w3.org/2000/svg">
  <defs
     id="defs136" />
  <g
     id="g138">
    <g
       id="g443"
       transform="matrix(1.5404329,0,0,1.4494785,-138.64758,-117.30472)">
      <path
         style="fill:#e2e4e3"
         d="m 265.84621,439.16983 c -1.84339,-1.61852 -6.09046,-4.54795 -9.43792,-6.50984 -3.34746,-1.96189 -6.56896,-4.15048 -7.15888,-4.86354 -1.62785,-1.96759 -12.99993,-36.47973 -14.72918,-44.70027 C 232.88178,375.30725 232.52226,368 233.77749,368 c 2.49538,0 13.58681,9.9854 15.8284,14.25 0.79501,1.5125 2.1716,2.75 3.05908,2.75 1.34521,0 1.51665,-0.81869 1.03068,-4.92193 -0.66805,-5.64069 -9.28338,-29.20785 -14.46836,-39.57807 -7.12577,-14.25192 -23.19055,-32.37964 -33.23677,-37.50484 -3.36013,-1.7142 -8.50714,-6.77206 -13.78686,-13.54805 -1.26298,-1.62091 -2.06483,-2.4508 -1.78189,-1.8442 0.28295,0.6066 1.01596,4.4316 1.62893,8.5 1.31114,8.70242 9.68303,35.58554 13.36465,42.91549 4.07387,8.11089 10.77901,16.08462 17.9523,21.34881 L 230,365.23443 v 6.31741 c 0,8.89986 2.02163,17.49765 8.52868,36.27163 3.11174,8.97791 5.42802,16.55317 5.14728,16.8339 -0.28073,0.28073 -3.27944,-0.49921 -6.6638,-1.73321 l -6.15339,-2.24363 -6.86157,-14.09027 C 220.22333,398.84062 214.13389,385.975 210.4651,378 201.46748,358.44153 195.03427,348.06064 186.14538,338.75674 l -7.4536,-7.8016 1.16811,-5.22757 c 1.37314,-6.1451 0.72521,-10.58592 -4.48322,-30.72757 -4.32465,-16.72391 -9.48504,-30.46613 -13.36676,-35.59588 -1.62485,-2.14727 -2.96679,-4.323 -2.98209,-4.83496 -0.0153,-0.51196 2.42345,-4.57709 5.41946,-9.03362 2.996,-4.45653 7.05217,-11.35015 9.0137,-15.31916 1.96154,-3.96901 3.96509,-7.21638 4.45234,-7.21638 0.48726,0 1.62405,3.31777 2.52622,7.37283 1.56891,7.05198 11.69617,28.73988 15.37268,32.92119 2.34106,2.66249 5.43734,1.70731 7.43623,-2.29402 2.69821,-5.40122 2.44682,-9.33897 -2.67125,-41.84357 -2.18935,-13.90448 -3.33014,-18.2203 -7.64409,-28.91899 -2.78888,-6.91649 -6.16474,-14.73442 -7.5019,-17.37319 C 184.09404,170.22548 183,167.3101 183,166.38563 c 0,-0.92448 4.89987,-10.50194 10.8886,-21.28325 5.98873,-10.78131 13.89376,-26.13311 17.56674,-34.11512 3.67297,-7.98201 7.44048,-15.523415 8.37224,-16.758674 1.5478,-2.051968 2.77267,-2.297297 14.18326,-2.840765 18.52376,-0.882256 17.25593,-2.154959 18.6515,18.723189 4.04824,60.56273 4.90195,64.96622 12.8854,66.46392 5.72279,1.07361 8.05124,-1.2333 9.37101,-9.28429 1.68844,-10.30001 3.19182,-31.56868 3.7827,-53.51467 0.3532,-13.11858 0.9187,-20.045757 1.68858,-20.684702 0.63664,-0.528366 7.31759,-1.102552 14.84656,-1.275967 11.1435,-0.25667 13.9652,-0.03637 15.17425,1.184699 0.81688,0.825 5.91086,10.275 11.31995,21 5.4091,10.725 14.01885,26.60945 19.13279,35.29878 8.37207,14.22539 9.19645,16.0678 8.27776,18.5 -0.56117,1.48567 -2.86211,7.20122 -5.11322,12.70122 -6.03568,14.74667 -8.67484,23.86544 -9.985,34.5 -0.64371,5.225 -1.81675,13.03721 -2.60675,17.36047 -1.73505,9.49496 -1.87717,24.57798 -0.26493,28.11645 1.39884,3.07012 5.40696,4.37707 7.36862,2.40273 2.64509,-2.66219 12.56787,-24.25179 14.60489,-31.77673 1.13197,-4.18161 2.41296,-7.98095 2.84664,-8.44298 0.43369,-0.46203 2.19035,1.91856 3.90369,5.29019 3.63009,7.14356 11.48845,19.29352 13.62613,21.06764 1.68149,1.39551 1.99721,6.54367 0.45957,7.49398 -3.18056,1.9657 -9.57077,19.29604 -13.93351,37.78794 -4.60213,19.50652 -5.20181,24.31756 -3.84872,30.87666 l 1.17098,5.67636 -5.50334,5.41611 C 342.17676,345.80486 334.70772,358.6431 323.5155,385 c -3.15296,7.425 -8.13397,18.49835 -11.06891,24.60744 l -5.33625,11.10744 -6.08773,2.27667 c -3.34826,1.25216 -6.30888,2.05551 -6.57917,1.78523 -0.27028,-0.27029 1.7317,-7.41814 4.44886,-15.88411 C 304.70322,390.78731 307,380.1779 307,371.44108 v -6.345 l 4.34796,-2.99147 c 6.56567,-4.5173 14.37461,-13.60363 18.17241,-21.14506 4.73794,-9.4083 11.97523,-33.96297 14.26588,-48.40127 1.04317,-6.57525 1.23785,-6.65137 -4.78625,1.87156 -1.375,1.94536 -5.2,5.43062 -8.5,7.74503 C 317.15731,311.53258 310.63804,318.51763 300.79705,334 294.68248,343.61977 283,376.38642 283,383.91661 c 0,3.45867 2.70379,2.34834 5.17508,-2.12519 C 290.33492,377.88165 301.20688,368 303.34861,368 c 1.41878,0 0.026,14.37579 -2.17992,22.5 -1.04536,3.85 -3.99888,13.75 -6.56339,22 -5.05702,16.2684 -5.06928,16.28667 -15.23359,22.71148 -3.22944,2.04132 -6.8397,4.42915 -8.0228,5.3063 -2.02666,1.50256 -2.34495,1.4246 -5.5027,-1.34795 z M 235.92607,321.13814 c 1.3384,-2.50083 -1.17055,-6.25002 -2.98553,-4.46136 -1.32231,1.30313 -0.49399,6.32322 1.04333,6.32322 0.52017,0 1.39416,-0.83784 1.9422,-1.86186 z m 67.68166,-0.71136 c 0.69686,-2.77648 -0.75614,-5.07112 -2.5206,-3.98063 -0.59792,0.36954 -1.08713,1.99533 -1.08713,3.61287 0,3.7237 2.69646,3.99858 3.60773,0.36776 z M 226,304.91516 C 226,302.76916 222.87879,298 221.47432,298 c -1.81241,0 -2.06939,7.00493 -0.32112,8.7532 1.28352,1.28352 4.8468,-0.0678 4.8468,-1.83804 z m 89.02475,0.51974 c 1.42763,-3.75495 1.19371,-6.41384 -0.62567,-7.112 -2.78657,-1.06931 -5.54311,5.5937 -3.3883,8.19009 1.77873,2.14324 2.90415,1.84097 4.01397,-1.07809 z M 211.43199,293.41496 C 212.30461,289.93817 211.25145,287 209.13261,287 c -3.87378,0 -5.4418,4.54795 -2.56118,7.42857 2.30241,2.30242 4.12361,1.92263 4.86056,-1.01361 z m 117.05087,0.95932 c 0.89934,-0.89933 1.48976,-2.79827 1.32143,-4.25 C 329.56642,288.07286 328.95427,287.5 327,287.5 c -2.00233,0 -2.56461,0.56425 -2.82457,2.83447 -0.61398,5.36184 1.24341,7.10383 4.30743,4.03981 z M 363.19495,326.5 c 0.0204,-1.65 0.2445,-2.20394 0.49804,-1.23097 0.25354,0.97297 0.23687,2.32297 -0.0371,3 -0.27393,0.67703 -0.48137,-0.11903 -0.46099,-1.76903 z M 170.15789,310 c 0,-1.375 0.22698,-1.9375 0.50439,-1.25 0.27741,0.6875 0.27741,1.8125 0,2.5 -0.27741,0.6875 -0.50439,0.125 -0.50439,-1.25 z m 169,-79 c 0,-1.375 0.22698,-1.9375 0.50439,-1.25 0.27741,0.6875 0.27741,1.8125 0,2.5 -0.27741,0.6875 -0.50439,0.125 -0.50439,-1.25 z m -145,-3 c 0,-1.375 0.22698,-1.9375 0.50439,-1.25 0.27741,0.6875 0.27741,1.8125 0,2.5 -0.27741,0.6875 -0.50439,0.125 -0.50439,-1.25 z M 355.25,215.31067 c 0.9625,-0.25152 2.5375,-0.25152 3.5,0 0.9625,0.25153 0.175,0.45733 -1.75,0.45733 -1.925,0 -2.7125,-0.2058 -1.75,-0.45733 z M 312.8125,86.316886 c 0.72187,-0.288871 1.58438,-0.253344 1.91667,0.07895 0.33229,0.332292 -0.25834,0.568641 -1.3125,0.52522 -1.16495,-0.04798 -1.4019,-0.284941 -0.60417,-0.604167 z m -14,-1 c 0.72187,-0.288871 1.58438,-0.253344 1.91667,0.07895 0.33229,0.332292 -0.25834,0.568641 -1.3125,0.52522 -1.16495,-0.04798 -1.4019,-0.284941 -0.60417,-0.604167 z"
         id="path457" />
      <path
         style="fill:#d2d3d2"
         d="m 363.19495,331.5 c 0.0204,-1.65 0.2445,-2.20394 0.49804,-1.23097 0.25354,0.97297 0.23687,2.32297 -0.0371,3 -0.27393,0.67703 -0.48137,-0.11903 -0.46099,-1.76903 z M 170.15789,306 c 0,-1.375 0.22698,-1.9375 0.50439,-1.25 0.27741,0.6875 0.27741,1.8125 0,2.5 -0.27741,0.6875 -0.50439,0.125 -0.50439,-1.25 z m 33.92106,-58.58333 c 0.048,-1.16495 0.28494,-1.4019 0.60416,-0.60417 0.28887,0.72187 0.25335,1.58437 -0.0789,1.91667 -0.3323,0.33229 -0.56864,-0.25834 -0.52522,-1.3125 z m -8.51466,-1.7098 c 0.37553,-0.98622 0.93469,-1.54122 1.24258,-1.23333 0.30789,0.30789 6.4e-4,1.11479 -0.68278,1.79313 -0.98762,0.98026 -1.10248,0.8654 -0.5598,-0.5598 z M 338.232,240 c 0,-1.925 0.2058,-2.7125 0.45733,-1.75 0.25152,0.9625 0.25152,2.5375 0,3.5 -0.25153,0.9625 -0.45733,0.175 -0.45733,-1.75 z m -143.07411,-6 c 0,-1.375 0.22698,-1.9375 0.50439,-1.25 0.27741,0.6875 0.27741,1.8125 0,2.5 -0.27741,0.6875 -0.50439,0.125 -0.50439,-1.25 z m 144,-7 c 0,-1.375 0.22698,-1.9375 0.50439,-1.25 0.27741,0.6875 0.27741,1.8125 0,2.5 -0.27741,0.6875 -0.50439,0.125 -0.50439,-1.25 z m -145.07894,-2.58333 c 0.048,-1.16495 0.28494,-1.4019 0.60416,-0.60417 0.28887,0.72187 0.25335,1.58437 -0.0789,1.91667 -0.3323,0.33229 -0.56864,-0.25834 -0.52522,-1.3125 z M 224.76166,91.292739 c 1.24391,-0.239193 3.04391,-0.230112 4,0.02018 0.95609,0.250292 -0.0617,0.445996 -2.26166,0.434897 -2.2,-0.0111 -2.98225,-0.215885 -1.73834,-0.455077 z m 69.05084,-5.975853 c 0.72187,-0.288871 1.58438,-0.253344 1.91667,0.07895 0.33229,0.332292 -0.25834,0.568641 -1.3125,0.52522 -1.16495,-0.04798 -1.4019,-0.284941 -0.60417,-0.604167 z"
         id="path455" />
      <path
         style="fill:#a2a3a3"
         d="m 189.87244,356.25 c -1.24387,-1.58606 -1.2085,-1.62143 0.37756,-0.37756 0.9625,0.75485 1.75,1.54235 1.75,1.75 0,0.82304 -0.82119,0.29331 -2.12756,-1.37244 z M 348,352.62244 c 0,-0.20765 0.7875,-0.99515 1.75,-1.75 1.58606,-1.24387 1.62143,-1.2085 0.37756,0.37756 C 348.82119,352.91575 348,353.44548 348,352.62244 Z M 172.19495,330.5 c 0.0204,-1.65 0.2445,-2.20394 0.49804,-1.23097 0.25354,0.97297 0.23687,2.32297 -0.0371,3 -0.27393,0.67703 -0.48137,-0.11903 -0.46099,-1.76903 z M 171.232,318 c 0,-1.925 0.2058,-2.7125 0.45733,-1.75 0.25152,0.9625 0.25152,2.5375 0,3.5 -0.25153,0.9625 -0.45733,0.175 -0.45733,-1.75 z m 191.02018,-1.5 c 0.0111,-2.2 0.21589,-2.98225 0.45508,-1.73834 0.23919,1.24391 0.23011,3.04391 -0.0202,4 -0.25029,0.95609 -0.446,-0.0617 -0.4349,-2.26166 z M 204.07895,250.41667 c 0.048,-1.16495 0.28494,-1.4019 0.60416,-0.60417 0.28887,0.72187 0.25335,1.58437 -0.0789,1.91667 -0.3323,0.33229 -0.56864,-0.25834 -0.52522,-1.3125 z M 196.5,250 c -0.33992,-0.55 -0.14148,-1 0.44098,-1 0.58246,0 1.05902,0.45 1.05902,1 0,0.55 -0.19844,1 -0.44098,1 -0.24254,0 -0.7191,-0.45 -1.05902,-1 z m -0.42105,-7.58333 c 0.048,-1.16495 0.28494,-1.4019 0.60416,-0.60417 0.28887,0.72187 0.25335,1.58437 -0.0789,1.91667 -0.3323,0.33229 -0.56864,-0.25834 -0.52522,-1.3125 z M 296.26903,91.307009 c 0.97297,-0.253543 2.32297,-0.236869 3,0.03705 0.67703,0.273923 -0.11903,0.481368 -1.76903,0.460988 -1.65,-0.02038 -2.20394,-0.244498 -1.23097,-0.498042 z m -68.47155,-6.051764 c 4.56362,-0.185715 11.76362,-0.18468 16,0.0023 4.23639,0.186981 0.50252,0.33893 -8.29748,0.337664 -8.8,-0.0013 -12.26613,-0.15425 -7.70252,-0.339964 z m 63.01502,0.06164 c 0.72187,-0.288871 1.58438,-0.253344 1.91667,0.07895 0.33229,0.332292 -0.25834,0.568641 -1.3125,0.52522 -1.16495,-0.04798 -1.4019,-0.284941 -0.60417,-0.604167 z"
         id="path453" />
      <path
         style="fill:#6e6e6e"
         d="m 172.15789,326 c 0,-1.375 0.22698,-1.9375 0.50439,-1.25 0.27741,0.6875 0.27741,1.8125 0,2.5 -0.27741,0.6875 -0.50439,0.125 -0.50439,-1.25 z m 190.03706,-3.5 c 0.0204,-1.65 0.2445,-2.20394 0.49804,-1.23097 0.25354,0.97297 0.23687,2.32297 -0.0371,3 -0.27393,0.67703 -0.48137,-0.11903 -0.46099,-1.76903 z m -191.116,-9.08333 c 0.048,-1.16495 0.28494,-1.4019 0.60416,-0.60417 0.28887,0.72187 0.25335,1.58438 -0.0789,1.91667 -0.3323,0.33229 -0.56864,-0.25834 -0.52522,-1.3125 z M 204.15789,254 c 0,-1.375 0.22698,-1.9375 0.50439,-1.25 0.27741,0.6875 0.27741,1.8125 0,2.5 -0.27741,0.6875 -0.50439,0.125 -0.50439,-1.25 z m 133.11184,-7.06928 c -0.17299,-2.29656 0.29838,-2.4986 1.07961,-0.46275 0.30982,0.80739 0.22638,1.67622 -0.18543,1.93073 -0.41181,0.25451 -0.81419,-0.40608 -0.89418,-1.46798 z m -141.19078,-7.51405 c 0.048,-1.16495 0.28494,-1.4019 0.60416,-0.60417 0.28887,0.72187 0.25335,1.58437 -0.0789,1.91667 -0.3323,0.33229 -0.56864,-0.25834 -0.52522,-1.3125 z m 82,-113 c 0.048,-1.16495 0.28494,-1.4019 0.60416,-0.60417 0.28887,0.72187 0.25335,1.58438 -0.0789,1.91667 -0.33229,0.33229 -0.56864,-0.25834 -0.52522,-1.3125 z M 292.8125,91.316886 c 0.72187,-0.288871 1.58438,-0.253344 1.91667,0.07895 0.33229,0.332292 -0.25834,0.568641 -1.3125,0.52522 -1.16495,-0.04798 -1.4019,-0.284941 -0.60417,-0.604167 z M 305.75,86.337719 c 0.6875,-0.277412 1.8125,-0.277412 2.5,0 0.6875,0.277413 0.125,0.504386 -1.25,0.504386 -1.375,0 -1.9375,-0.226973 -1.25,-0.504386 z m -17.9375,-1.020833 c 0.72187,-0.288871 1.58438,-0.253344 1.91667,0.07895 0.33229,0.332292 -0.25834,0.568641 -1.3125,0.52522 -1.16495,-0.04798 -1.4019,-0.284941 -0.60417,-0.604167 z"
         id="path451" />
      <path
         style="fill:#4e4e4e"
         d="M 216.40499,354.75 214.5,352.5 l 2.25,1.90499 c 2.11444,1.79022 2.70524,2.59501 1.90499,2.59501 -0.18976,0 -1.20226,-1.0125 -2.25,-2.25 z m -29.53255,-2.5 c -1.24387,-1.58606 -1.2085,-1.62143 0.37756,-0.37756 0.9625,0.75485 1.75,1.54235 1.75,1.75 0,0.82304 -0.82119,0.29331 -2.12756,-1.37244 z m -15.79349,-41.83333 c 0.048,-1.16495 0.28494,-1.4019 0.60416,-0.60417 0.28887,0.72187 0.25335,1.58438 -0.0789,1.91667 -0.3323,0.33229 -0.56864,-0.25834 -0.52522,-1.3125 z M 277.15789,133 c 0,-1.375 0.22698,-1.9375 0.50439,-1.25 0.27741,0.6875 0.27741,1.8125 0,2.5 -0.27741,0.6875 -0.50439,0.125 -0.50439,-1.25 z m 1.09429,-11.5 c 0.0111,-2.2 0.21589,-2.98225 0.45508,-1.73834 0.23919,1.24391 0.23011,3.04391 -0.0202,4 -0.25029,0.95609 -0.446,-0.0617 -0.4349,-2.26166 z m 8.50948,-30.207261 c 1.24391,-0.239193 3.04391,-0.230112 4,0.02018 0.95609,0.250292 -0.0617,0.445996 -2.26166,0.434897 -2.2,-0.0111 -2.98225,-0.215885 -1.73834,-0.455077 z"
         id="path449" />
      <path
         style="fill:#2e2e2e"
         d="m 272.5,440 c 0.99549,-1.1 2.03498,-2 2.30998,-2 0.275,0 -0.31449,0.9 -1.30998,2 -0.99549,1.1 -2.03498,2 -2.30998,2 -0.275,0 0.31449,-0.9 1.30998,-2 z m 20.57895,-15.58333 c 0.048,-1.16495 0.28494,-1.4019 0.60416,-0.60417 0.28887,0.72187 0.25335,1.58438 -0.0789,1.91667 -0.33229,0.33229 -0.56864,-0.25834 -0.52522,-1.3125 z m -61,-37 c 0.048,-1.16495 0.28494,-1.4019 0.60416,-0.60417 0.28887,0.72187 0.25335,1.58438 -0.0789,1.91667 -0.3323,0.33229 -0.56864,-0.25834 -0.52522,-1.3125 z M 253.15789,383 c 0,-1.375 0.22698,-1.9375 0.50439,-1.25 0.27741,0.6875 0.27741,1.8125 0,2.5 -0.27741,0.6875 -0.50439,0.125 -0.50439,-1.25 z m -22.07894,-0.58333 c 0.048,-1.16495 0.28494,-1.4019 0.60416,-0.60417 0.28887,0.72187 0.25335,1.58438 -0.0789,1.91667 -0.3323,0.33229 -0.56864,-0.25834 -0.52522,-1.3125 z M 290.5,377 c 0.99549,-1.1 2.03498,-2 2.30998,-2 0.275,0 -0.31449,0.9 -1.30998,2 -0.99549,1.1 -2.03498,2 -2.30998,2 -0.275,0 0.31449,-0.9 1.30998,-2 z m -60.42105,-2.58333 c 0.048,-1.16495 0.28494,-1.4019 0.60416,-0.60417 0.28887,0.72187 0.25335,1.58438 -0.0789,1.91667 -0.3323,0.33229 -0.56864,-0.25834 -0.52522,-1.3125 z M 304.15789,374 c 0,-1.375 0.22698,-1.9375 0.50439,-1.25 0.27741,0.6875 0.27741,1.8125 0,2.5 -0.27741,0.6875 -0.50439,0.125 -0.50439,-1.25 z m -72.07894,-1.58333 c 0.048,-1.16495 0.28494,-1.4019 0.60416,-0.60417 0.28887,0.72187 0.25335,1.58438 -0.0789,1.91667 -0.3323,0.33229 -0.56864,-0.25834 -0.52522,-1.3125 z M 304,369.39301 c 0,-1.04149 -0.54612,-1.39742 -1.55194,-1.01145 -0.88992,0.34149 -1.29132,0.17385 -0.94098,-0.39301 C 302.58884,366.23822 305,366.93643 305,369 c 0,1.1 -0.225,2 -0.5,2 -0.275,0 -0.5,-0.72314 -0.5,-1.60699 z M 193.92431,360.25 191.5,357.5 l 2.75,2.42431 c 2.57029,2.26589 3.20859,3.07569 2.42431,3.07569 -0.17912,0 -1.41662,-1.2375 -2.75,-2.75 z M 320,353.62244 c 0,-0.20765 0.7875,-0.99515 1.75,-1.75 1.58606,-1.24387 1.62143,-1.2085 0.37756,0.37756 C 320.82119,353.91575 320,354.44548 320,353.62244 Z M 187.87244,341.25 c -1.24387,-1.58606 -1.2085,-1.62143 0.37756,-0.37756 0.9625,0.75485 1.75,1.54235 1.75,1.75 0,0.82304 -0.82119,0.29331 -2.12756,-1.37244 z M 173.15789,333 c 0,-1.375 0.22698,-1.9375 0.50439,-1.25 0.27741,0.6875 0.27741,1.8125 0,2.5 -0.27741,0.6875 -0.50439,0.125 -0.50439,-1.25 z m 183.4064,-1.29313 c 0.37553,-0.98622 0.93469,-1.54122 1.24258,-1.23333 0.30789,0.30789 6.4e-4,1.11479 -0.68278,1.79313 -0.98762,0.98026 -1.10248,0.8654 -0.5598,-0.5598 z m -178.48534,-2.2902 c 0.048,-1.16495 0.28494,-1.4019 0.60416,-0.60417 0.28887,0.72187 0.25335,1.58438 -0.0789,1.91667 -0.3323,0.33229 -0.56864,-0.25834 -0.52522,-1.3125 z m -6,-7 c 0.048,-1.16495 0.28494,-1.4019 0.60416,-0.60417 0.28887,0.72187 0.25335,1.58438 -0.0789,1.91667 -0.3323,0.33229 -0.56864,-0.25834 -0.52522,-1.3125 z m 6,-13 c 0.048,-1.16495 0.28494,-1.4019 0.60416,-0.60417 0.28887,0.72187 0.25335,1.58438 -0.0789,1.91667 -0.3323,0.33229 -0.56864,-0.25834 -0.52522,-1.3125 z M 342.19495,296.5 c 0.0204,-1.65 0.2445,-2.20394 0.49804,-1.23097 0.25354,0.97297 0.23687,2.32297 -0.0371,3 -0.27393,0.67703 -0.48137,-0.11903 -0.46099,-1.76903 z m -150.116,-0.0833 c 0.048,-1.16495 0.28494,-1.4019 0.60416,-0.60417 0.28887,0.72187 0.25335,1.58438 -0.0789,1.91667 -0.3323,0.33229 -0.56864,-0.25834 -0.52522,-1.3125 z m 151,-7 c 0.048,-1.16495 0.28494,-1.4019 0.60416,-0.60417 0.28887,0.72187 0.25335,1.58438 -0.0789,1.91667 -0.33229,0.33229 -0.56864,-0.25834 -0.52522,-1.3125 z m -191,-33 c 0.048,-1.16495 0.28494,-1.4019 0.60416,-0.60417 0.28887,0.72187 0.25335,1.58438 -0.0789,1.91667 -0.3323,0.33229 -0.56864,-0.25834 -0.52522,-1.3125 z M 330.35496,249.5 c -0.003,-4.95 0.16605,-7.10108 0.37577,-4.78017 0.20972,2.3209 0.21222,6.3709 0.006,9 -0.20667,2.62909 -0.37827,0.73017 -0.38131,-4.21983 z m -133.65483,3.16092 c -0.2802,-0.73017 0.12265,-1.32759 0.89521,-1.32759 1.57457,0 1.87888,1.25555 0.50944,2.10191 -0.49236,0.3043 -1.12446,-0.0441 -1.40465,-0.77432 z m 6.37882,-11.24425 c 0.048,-1.16495 0.28494,-1.4019 0.60416,-0.60417 0.28887,0.72187 0.25335,1.58437 -0.0789,1.91667 -0.3323,0.33229 -0.56864,-0.25834 -0.52522,-1.3125 z m 134,0 c 0.048,-1.16495 0.28494,-1.4019 0.60416,-0.60417 0.28887,0.72187 0.25335,1.58437 -0.0789,1.91667 -0.33229,0.33229 -0.56864,-0.25834 -0.52522,-1.3125 z M 265.75,176.33772 c 0.6875,-0.27741 1.8125,-0.27741 2.5,0 0.6875,0.27741 0.125,0.50439 -1.25,0.50439 -1.375,0 -1.9375,-0.22698 -1.25,-0.50439 z m -83.67105,-9.92105 c 0.048,-1.16495 0.28494,-1.4019 0.60416,-0.60417 0.28887,0.72187 0.25335,1.58437 -0.0789,1.91667 -0.3323,0.33229 -0.56864,-0.25834 -0.52522,-1.3125 z m 75,-4 c 0.048,-1.16495 0.28494,-1.4019 0.60416,-0.60417 0.28887,0.72187 0.25335,1.58437 -0.0789,1.91667 -0.33229,0.33229 -0.56864,-0.25834 -0.52522,-1.3125 z m -0.884,-8.91667 c 0.0204,-1.65 0.2445,-2.20394 0.49804,-1.23097 0.25354,0.97297 0.23687,2.32297 -0.0371,3 -0.27393,0.67703 -0.48137,-0.11903 -0.46099,-1.76903 z m 20,-6 c 0.0204,-1.65 0.2445,-2.20394 0.49804,-1.23097 0.25354,0.97297 0.23687,2.32297 -0.0371,3 -0.27393,0.67703 -0.48137,-0.11903 -0.46099,-1.76903 z M 255.15789,140 c 0,-1.375 0.22698,-1.9375 0.50439,-1.25 0.27741,0.6875 0.27741,1.8125 0,2.5 -0.27741,0.6875 -0.50439,0.125 -0.50439,-1.25 z m -1.96294,-18.5 c 0.0204,-1.65 0.2445,-2.20394 0.49804,-1.23097 0.25354,0.97297 0.23687,2.32297 -0.0371,3 -0.27393,0.67703 -0.48137,-0.11903 -0.46099,-1.76903 z m 25.09106,-8 c 0.008,-2.75 0.20172,-3.75631 0.43157,-2.23625 0.22986,1.52006 0.22371,3.77006 -0.0136,5 -0.23736,1.22994 -0.42542,-0.0138 -0.41792,-2.76375 z M 252.27236,100 c 0,-2.475 0.19502,-3.4875 0.43337,-2.25 0.23836,1.2375 0.23836,3.2625 0,4.5 -0.23835,1.2375 -0.43337,0.225 -0.43337,-2.25 z m 30.54014,-8.683114 c 0.72187,-0.288871 1.58438,-0.253344 1.91667,0.07895 0.33229,0.332292 -0.25834,0.568641 -1.3125,0.52522 -1.16495,-0.04798 -1.4019,-0.284941 -0.60417,-0.604167 z"
         id="path447" />
      <path
         style="fill:#010101"
         d="m 250.5,436.40682 c -10.45,-5.73568 -20.64053,-11.1287 -22.64561,-11.98448 -3.69875,-1.57864 -6.0195,-5.2609 -11.71957,-18.59506 -1.09862,-2.57 -3.10736,-7.07 -4.46387,-10 -1.3565,-2.93001 -4.58594,-10.05228 -7.17653,-15.82728 -2.59058,-5.775 -5.5611,-12.3 -6.60116,-14.5 -1.04005,-2.2 -6.79297,-9.5836 -12.78426,-16.40801 C 172.82703,335.10216 173.89931,337.96425 171.96179,314 c -0.88392,-10.93281 -1.85187,-15.93698 -5.09016,-26.31529 -4.94675,-15.85375 -7.08766,-20.90706 -10.8933,-25.71207 -1.63808,-2.06825 -2.95921,-4.82069 -2.93584,-6.11654 0.0234,-1.29586 1.93587,-5.37899 4.25,-9.07363 2.31413,-3.69464 7.31619,-11.7044 11.11568,-17.79946 3.79949,-6.09507 7.75399,-11.53461 8.78777,-12.08787 2.51295,-1.34489 5.23954,-0.36161 6.5759,2.37143 1.06405,2.17613 8.20718,20.41308 11.76223,30.02985 2.19424,5.93563 3.59836,4.91657 2.47522,-1.79642 -0.4601,-2.75 -1.57305,-11.75 -2.47323,-20 -1.94643,-17.83882 -2.67318,-21.07196 -7.53014,-33.5 -10.40901,-26.63467 -12.09953,-32.39105 -10.14656,-34.55 0.47265,-0.5225 3.90347,-6.8 7.62403,-13.95 3.72057,-7.15 8.44908,-16.15 10.5078,-20 2.05872,-3.85 5.89286,-11.05 8.52031,-16 9.45706,-17.816688 11.83823,-22.011666 12.90476,-22.734687 0.59606,-0.404078 9.0015,-0.741578 18.67875,-0.75 20.29235,-0.01766 19.28291,-0.456596 22.96223,9.984687 1.25977,3.575 2.39543,6.64568 2.52369,6.82374 0.95934,1.33174 7.31272,-4.083031 11.42548,-9.737553 2.74023,-3.767475 5.77229,-7.038255 6.73791,-7.2684 2.08859,-0.497791 30.81035,0.900776 33.91137,1.651269 2.05441,0.497197 4.09057,3.646398 12.62801,19.530944 1.62584,3.025 5.43849,10 8.47254,15.5 3.03406,5.5 6.96504,12.7 8.73552,16 1.77047,3.3 5.08411,9.45196 7.36364,13.67102 2.27953,4.21906 4.1446,8.74418 4.1446,10.05583 0,1.31164 -0.92904,5.28468 -2.06454,8.82898 -14.48718,45.21976 -12.477,35.9664 -15.60908,71.85213 -0.70298,8.05446 0.56775,9.15504 2.68806,2.32811 0.63819,-2.05484 1.95407,-5.53607 2.92416,-7.73607 0.9701,-2.2 2.99957,-7.27415 4.50993,-11.27589 1.51036,-4.00174 3.40945,-7.93924 4.22022,-8.75 2.01246,-2.01246 7.67911,-1.85731 10.07604,0.27589 2.0346,1.81073 11.68421,17.37526 17.08975,27.56524 l 3.08485,5.81523 -1.86914,4.68477 c -1.02803,2.57662 -4.30683,10.75976 -7.28623,18.18476 -7.55397,18.82538 -11.25171,36.42731 -10.50381,50.00002 0.5454,9.89787 0.52891,9.9913 -2.51193,14.23163 -1.68352,2.34759 -6.11178,7.671 -9.84058,11.8298 -4.59577,5.12574 -8.05786,10.27967 -10.74779,16 C 328.85618,387.97305 326,394.17728 326,394.6476 c 0,0.27977 -1.53069,3.736 -3.40152,7.68053 -1.87084,3.94453 -4.97011,10.61294 -6.88727,14.8187 -2.51113,5.50879 -4.14636,7.85402 -5.84848,8.38786 -6.89726,2.16319 -19.30538,9.18309 -26.36273,14.91473 -6.00085,4.87361 -8.74968,6.48332 -11,6.44157 -1.85074,-0.0343 -10.27867,-4.05069 -22,-10.48417 z m 22.98566,3.60902 c 0.98761,-1.09129 5.05428,-4.01517 9.03705,-6.49753 l 7.2414,-4.51336 4.53549,-14.25248 c 6.65647,-20.91753 8.48698,-27.51293 9.6453,-34.75247 1.33276,-8.32982 1.33339,-13 0.002,-13 -2.07792,0 -14.64261,11.02025 -16.50267,14.47417 -2.56408,4.7612 -4.47929,4.64762 -3.77987,-0.22417 0.79658,-5.54852 9.02957,-29.54214 13.33938,-38.87527 3.97198,-8.60157 15.25689,-24.46583 21.66507,-30.45662 2.10729,-1.97004 6.81671,-5.66801 10.46536,-8.2177 6.17383,-4.31428 9.63393,-7.70643 12.56317,-12.31645 2.17428,-3.42187 0.28137,10.36421 -2.76205,20.11604 -1.54483,4.95 -3.55053,11.925 -4.4571,15.5 -3.31459,13.07087 -12.04181,26.293 -22.44186,34.00043 l -5.46393,4.04929 -0.15441,7.72514 c -0.17574,8.79265 -3.23872,21.74128 -9.46718,40.02223 -2.30434,6.7634 -3.98474,12.50207 -3.73421,12.75259 0.63944,0.63945 11.74035,-3.27313 13.60281,-4.79438 1.58484,-1.29449 11.7566,-21.9977 15.28474,-31.10998 5.70797,-14.7422 16.30635,-35.55909 22.58027,-44.35121 2.45396,-3.43892 6.53499,-8.07752 9.06896,-10.30801 l 4.6072,-4.05542 -1.29807,-5.06483 c -1.71797,-6.70313 -0.87858,-13.58862 4.05861,-33.29282 4.39716,-17.54899 8.50977,-29.1177 12.3605,-34.76998 1.38525,-2.03332 2.51863,-4.21315 2.51863,-4.84407 0,-0.63092 -2.42378,-4.46604 -5.38617,-8.52249 -2.96239,-4.05645 -7.12489,-10.76219 -9.25,-14.90164 -2.12511,-4.13945 -4.40899,-7.5282 -5.07529,-7.53056 -0.6663,-0.002 -1.70362,1.90821 -2.30516,4.24571 -3.37031,13.09663 -14.81689,37.75 -17.52736,37.75 -0.80081,0 -2.40572,-0.9497 -3.56647,-2.11045 -1.99536,-1.99536 -2.0832,-2.85423 -1.61083,-15.75 0.55826,-15.24028 2.80632,-33.32111 5.3637,-43.13955 0.93117,-3.575 4.31756,-13.16583 7.52531,-21.31295 3.20775,-8.14712 5.83227,-15.5193 5.83227,-16.38262 0,-0.86331 -3.45137,-7.47249 -7.66971,-14.68705 -11.22134,-19.19167 -15.72215,-27.54843 -22.92252,-42.56078 -3.54631,-7.39387 -7.18357,-14.25637 -8.08279,-15.25 C 309.9032,91.235551 307.94148,91 296.27927,91 c -7.37591,0 -14.21707,0.431529 -15.20257,0.958954 -1.54178,0.825132 -1.885,2.953263 -2.45951,15.249996 -2.11528,45.27529 -3.91483,64.35747 -6.31985,67.01498 -1.77156,1.95756 -7.30208,2.37908 -10.283,0.78375 -2.62883,-1.40691 -3.75138,-5.78785 -4.99852,-19.50768 -0.59994,-6.6 -1.55912,-16.5 -2.1315,-22 -0.57238,-5.5 -1.37471,-16.8985 -1.78294,-25.33 C 252.54103,96.596605 252.00883,92.614709 250.92957,91.920634 250.14331,91.414983 242.975,91.113483 235,91.250634 L 220.5,91.5 l -12,24.05144 c -6.6,13.22829 -15.31077,30.02737 -19.35727,37.33128 l -7.35727,13.27983 4.15692,8.94693 c 6.61703,14.24182 10.78053,25.78213 12.40913,34.3954 3.52298,18.63221 5.14102,31.63143 5.14464,41.33162 0.004,9.57978 -0.16445,10.47291 -2.29502,12.19986 -1.26437,1.02485 -2.93166,1.62054 -3.70507,1.32375 -2.40046,-0.92114 -15.44476,-28.23583 -16.85872,-35.30206 -0.70897,-3.54307 -1.79696,-6.61126 -2.41775,-6.81819 -0.62079,-0.20693 -2.90235,3.14195 -5.07013,7.44195 -2.16779,4.30001 -6.4607,11.61718 -9.5398,16.2604 -5.175,7.8038 -5.48782,8.59782 -4.13665,10.5 5.88192,8.28058 9.39975,17.05447 14.87994,37.11238 4.76364,17.43524 6.17046,26.8965 4.75656,31.98922 -0.60409,2.1759 -1.10087,4.31392 -1.10393,4.75114 -0.003,0.43723 2.92339,3.76748 6.50324,7.40056 10.19837,10.35002 17.22903,22.07783 29.02579,48.4178 3.9624,8.84731 16.15275,33.77672 16.95914,34.68165 0.62495,0.70132 13.86772,5.17691 14.23403,4.8106 0.22276,-0.22276 -2.09183,-7.53764 -5.14352,-16.25529 -6.39492,-18.26808 -8.69248,-28.08824 -8.79211,-37.57899 l -0.0706,-6.72873 -6.7003,-4.88869 C 212.78499,351.95563 205.15982,340.44568 200.60478,324.80747 199.2739,320.23836 197.26271,314.025 196.13546,311 c -1.78953,-4.80225 -4.10572,-15.92767 -4.12791,-19.82774 -0.004,-0.73026 1.47595,0.61726 3.28912,2.99448 1.81317,2.37723 7.32567,7.12135 12.25,10.5425 12.33125,8.56705 24.20276,21.90845 30.37539,34.13636 9.24603,18.31628 17.86373,46.1544 14.28778,46.1544 -0.59128,0 -1.3701,-0.92957 -1.73069,-2.06571 -1.52492,-4.80459 -15.23846,-16.81911 -17.55993,-15.38437 -2.31245,1.42918 1.69412,21.80138 7.38964,37.57407 1.86212,5.15681 4.2885,12.30101 5.39195,15.87601 l 2.00628,6.5 10.39645,7.13226 c 5.71805,3.92274 11.11422,7.18524 11.99147,7.25 0.87726,0.0648 2.40305,-0.77513 3.39065,-1.86642 z m 26.90029,-118.45246 c -0.73573,-1.91726 0.182,-4.56338 1.58267,-4.56338 1.32874,0 1.34945,4.68539 0.0243,5.50437 -0.55389,0.34231 -1.27703,-0.0811 -1.60699,-0.94099 z M 232.71051,320.001 c -0.56368,-2.15552 0.66926,-3.50236 2.28949,-2.501 1.50532,0.93034 1.2012,4.5 -0.38337,4.5 -0.76085,0 -1.61861,-0.89955 -1.90612,-1.999 z m -12.2788,-16.51335 c -0.90712,-4.83533 0.79982,-6.59012 3.05799,-3.14372 1.98197,3.02488 1.66178,6.00322 -0.69417,6.45693 -1.2377,0.23836 -1.8616,-0.63611 -2.36382,-3.31321 z m 90.65555,2.11749 c -0.96084,-1.15774 -0.88279,-2.09987 0.37559,-4.53331 2.62084,-5.06814 5.29145,-3.37529 3.72782,2.36301 -0.93704,3.43883 -2.40588,4.2157 -4.10341,2.1703 z M 207.0677,294.12651 c -1.46868,-2.74426 -1.33852,-5.80861 0.27298,-6.427 2.36917,-0.90913 3.81918,0.89255 3.4835,4.32834 -0.38044,3.89392 -2.23976,4.93267 -3.75648,2.09866 z m 117.55813,-0.65921 c -1.0967,-2.85793 -0.67686,-5.23374 1.04139,-5.89309 2.32549,-0.89238 3.54764,0.67174 3.16096,4.04542 -0.366,3.19323 -3.20673,4.44223 -4.20235,1.84767 z"
         id="path445" />
    </g>
  </g>
</svg>
